<svg width="44" height="44" viewBox="0 0 44 44" fill="none" xmlns="http://www.w3.org/2000/svg">
<rect width="44" height="44" rx="22" fill="#30C5F7"/>
<path fill-rule="evenodd" clip-rule="evenodd" d="M14.2431 28.6217C14.1424 29.2725 14.7276 29.8577 15.3784 29.7569L16.5885 32.1771C16.8211 32.6423 17.3714 32.8515 17.8543 32.6584L18.0668 32.5734C18.9111 32.2356 19.4213 31.3708 19.3085 30.4684L19 28.0001L23.2857 24.4287L28.5103 32.2656C28.7901 32.6852 29.3385 32.8308 29.7896 32.6053L30.2243 32.388C30.6694 32.1654 30.8831 31.6494 30.7257 31.1773L29 26.0001L29.7929 25.2072C30.1834 24.8167 30.1834 24.1835 29.7929 23.793L29.2071 23.2072C28.8837 22.8838 28.394 22.8282 28.0134 23.0404L27.1493 20.4479L31.8613 14.8523C32.5053 14.0875 32.457 12.9571 31.75 12.2501C31.043 11.5431 29.9126 11.4947 29.1478 12.1388L23.5522 16.8508L20.9597 15.9867C21.1719 15.6061 21.1163 15.1163 20.7929 14.793L20.2071 14.2072C19.8166 13.8167 19.1834 13.8167 18.7929 14.2072L18 15.0001L12.8228 13.2744C12.3507 13.117 11.8347 13.3307 11.6121 13.7758L11.3948 14.2105C11.1693 14.6616 11.3149 15.21 11.7345 15.4898L19.5714 20.7144L16 25.0001L13.5317 24.6916C12.6293 24.5788 11.7645 25.089 11.4267 25.9333L11.3417 26.1458C11.1486 26.6287 11.3578 27.179 11.823 27.4116L14.2431 28.6217Z" fill="white"/>
</svg>
