<svg width="452" height="879" viewBox="0 0 452 879" fill="none" xmlns="http://www.w3.org/2000/svg">
<path d="M11.7998 94.2002C11.7998 94.2002 70.3998 138.5 99.7998 143.1C99.7998 120.5 99.7998 97.9002 99.7998 75.2002C70.3998 93.3002 11.7998 94.2002 11.7998 94.2002Z" fill="#E7E7E7"/>
<path d="M98.3296 75.4308L98.3296 244.631L109.23 244.631L109.23 75.4308L98.3296 75.4308Z" fill="#8E7253"/>
<path d="M98.3047 75.4065L98.3047 244.606L103.705 244.606L103.705 75.4065L98.3047 75.4065Z" fill="#543C25"/>
<path d="M289.1 235C283.9 224.6 275.8 216.1 259.3 222.4C242.8 228.7 240.8 240.7 242.8 247.5C244.8 254.3 281.1 359 281.1 359C281.1 359 293.7 378.8 315.7 364.3C337.7 349.8 329.1 331.8 329.1 331.8C329.1 331.8 294.3 245.4 289.1 235Z" fill="#D9CEBB"/>
<path d="M126.1 574.6C126.1 574.6 113.5 502.2 117.2 469.4C120.9 436.7 132.7 409.3 132.7 409.3L277 421.8V509.1L126.1 574.6Z" fill="#8E7253"/>
<path d="M191.3 179.6L263.9 216.8L250.8 412.1C250.8 412.1 114.9 417.5 103.8 412.1C92.6999 406.7 76.2998 402.2 64.0998 382.9C51.8998 363.6 67.4999 236.4 92.7999 211.7C118.1 187 191.3 179.6 191.3 179.6Z" fill="#255A73"/>
<path d="M112.3 377C111.7 373.5 110.9 369.9 109.7 366.3C108.5 362.7 107.1 358.9 104.8 355.5C100.1 348.3 91.7 345.1 84.8 346.3C77.4 347.6 72.7 353.7 69.1 359.2C65.1 365.1 62.2 371.8 59.8 378.7C55.6 390.6 52.7001 403.2 50.9001 416.2C50.6001 418.5 50.3 420.7 50.1 423C41.9 445.5 40.4 471.4 40.8 497.2C40.5 497.1 40.2001 497.1 39.9001 497C38.5001 496.7 37.4001 497.1 36.9001 498.2C36.5001 498.5 36.2 498.9 36 499.4C35.6 500.4 35.8 501.5 36 502.7C36.2 504 36.3001 505.3 36.4001 506.5C36.5001 509 36.5 511.5 36.3 513.9C36.1 515.9 35.4 518 35.6 520.1C36.3 527.1 46.1 527.5 49.6 525C53.7 522 52.3 515.2 52.1 510.1C52 508.5 51.9 506.9 51.8 505.4C51.7 503.6 51.7001 501.6 49.9001 500C49.1001 499.3 48.2 498.9 47.2 498.7C47 483.2 47.4 467.9 49.6 453.3C50.5 467.5 53 482 57.5 496.6C59.7 503.8 62.3 511.1 65.8 518.2C67.6 521.9 69.7 525.7 72.3 529C75.4 532.9 79.5 534.2 83 532.5C89.7 529.4 91.3 521.2 92.8 514.3C94.4 507 96.2001 499.7 97.9001 492.5C100.9 480.1 103.7 467.4 105.3 454.3C107.9 443.4 110 432.2 111.7 420.9C112.2 417.6 112.6 414.2 112.9 410.8L113.7 392.8C113.6 387.7 113.2 382.3 112.3 377ZM60.4001 401C63.1001 389.4 66.4 377.8 72 367.8C68.6 377.6 65.7001 387.6 63.4001 397.9C62.2001 399.5 61 401.2 60 402.9C60.2 402.3 60.3001 401.6 60.4001 401ZM87.3 508.2C85.9 514.3 85.3001 522.1 80.4001 526.1C80.0001 526.5 78.6 527.7 77.8 527.4C76.8 527.1 75.5 524.5 75 523.7C72.9 520.3 71.1 516.8 69.6 513.3C63.9 500.4 60.3 487 58.1 474.1C55.9 461.4 55.2 449 55.7 436.9C55.8 433.3 56.1001 429.7 56.4001 426.1C57.5001 423.2 58.7 420.3 60 417.5C59.2 423.5 58.5 429.5 58.1 435.7C57.2 449.8 56.9 464.5 59.7 479.4C60.4 483.1 61.3 486.8 62.6 490.5C63.8 494.1 65.2 497.7 67.6 501.1C69.8 504.2 73.2 507.1 76.8 507.9C80.7 508.7 83.6001 507.2 85.9001 505.1C87.0001 504 88.1 502.8 89 501.5C88.4 503.6 87.8 505.9 87.3 508.2ZM99.2 451.2C96.7 461.9 93.7 472.3 90 482.5C87.7 488.8 85.5 495.7 80.7 500.2C79.4 501.4 77.4 502.8 75 501.2C72.4 499.5 70.8 496.1 69.8 493.6C64.3 480.1 63.9001 466.2 63.9001 453.3C63.9001 435.4 65.9 418.1 69.5 401.5C72.8 397.1 76.6 393.1 80.8 389.6C82 388.6 83.2001 387.7 84.4001 386.8C85.6001 386 86.8 384.9 88.2 384.4C88.9 384.2 89.7 383.9 90.5 384.5C91.8 385.3 92.5 387.2 93 388.4C95.6 394.9 97.1 401.7 98.3 408.1C99.5 414.7 100.1 421.2 100.3 427.6C100.5 435.7 100.1 443.5 99.2 451.2ZM105.7 416.8C105.3 413.7 104.9 410.5 104.3 407.3C103.6 403.8 102.8 400.2 101.8 396.7C100.8 393.1 99.8001 389.2 97.9001 385.6C96.0001 381.8 92.5 378.5 88.3 378.1C84.7 377.8 82.1 379.8 79.8 381.5C77.4 383.2 75.2 385.1 73 387.1C74.1 383 75.4 379 76.7 375.1C78.7 369.1 80.9 363.2 83.3 357.4C83.6 356.6 83.3 355.4 82.6 354.5C83.8 353.6 85.1 352.9 86.6 352.5C89 351.8 92.0001 351.8 94.9001 353.1C98.1001 354.5 99.9 357.3 101.3 360.2C103.6 365.1 105.1 370 106.1 375L107.1 403.5C106.7 408 106.3 412.4 105.7 416.8Z" fill="#7F5E4C"/>
<path d="M44.0997 390.9C44.0997 390.9 46.4997 390.2 51.7997 393.5C54.8997 395.5 57.3997 399.8 57.3997 399.8L51.3997 410.5L38.1997 400.6L44.0997 390.9Z" fill="#1B4755"/>
<path d="M1.09961 450.3L36.3997 395.8C36.3997 395.8 41.7996 394.5 48.1996 398.9C54.9996 403.6 57.3997 408.6 57.3997 408.6L32.7996 469.4L1.09961 450.3Z" fill="#20669C"/>
<path opacity="0.55" d="M42.8999 414.4C44.6999 410.3 46.8999 405.8 48.2999 401.2C53.2999 405.1 55.0999 408.9 55.0999 408.9L32.2999 465.3L17.8999 456.6C28.8999 444.4 36.2999 429.4 42.8999 414.4Z" fill="#A9A6A2"/>
<path opacity="0.5" d="M42 446.3L32.6 469.4L1 450.3L13.9 430.3C14 430.4 29.6 425.6 42 446.3Z" fill="#A4A6A4"/>
<path d="M0.399902 449.7L8.99988 435.7C8.99988 435.7 15.8999 431 28.8999 439.2C37.0999 444.4 40.7999 453.1 40.7999 453.1L32.5999 469.5L0.399902 449.7Z" fill="#C2C2C2"/>
<path d="M39.9998 454.5L40.0998 454.3C40.0998 454.3 36.3998 445.6 28.1998 440.4C15.5998 432.5 8.7998 436.5 8.2998 436.8L8.99982 435.7C8.99982 435.7 15.8998 431 28.8998 439.2C37.0998 444.4 40.7998 453.1 40.7998 453.1L40.0998 454.6C40.0998 454.5 40.0998 454.5 39.9998 454.5Z" fill="#E1E2E2"/>
<path opacity="0.55" d="M29.5996 439.7C37.3996 444.9 40.8997 453.1 40.8997 453.1L32.6996 469.5L18.5996 460.9C25.0996 456.2 29.1996 447.9 29.5996 439.7Z" fill="#AEB6B6"/>
<path d="M2.99981 447.3C6.79981 445.3 13.3998 443.8 23.7998 450.6C36.7998 459.1 34.2998 466 32.5998 469.5C31.6998 471.4 22.8998 476.6 10.2998 468.7C3.2998 464.2 0.0998118 448.8 2.99981 447.3Z" fill="#CFCFCF"/>
<path d="M3.29979 457.4C2.69979 455.1 3.49981 452.3 5.69981 451.3C8.49981 449.9 13.3998 448.8 21.1998 453.9C30.9998 460.3 29.1998 465.4 27.9998 467.9C27.2998 469.3 20.8998 472.2 11.4998 466.2C6.4998 463 3.99979 460 3.29979 457.4Z" fill="#6F6B69"/>
<path d="M7.69962 457.3C7.19962 455.6 7.89963 453.7 9.39963 453C11.3996 452 14.7996 451.3 20.2996 454.9C27.1996 459.5 25.9996 463 25.0996 464.8C24.5996 465.8 20.0996 467.8 13.4996 463.5C9.99961 461.3 8.19962 459.2 7.69962 457.3Z" fill="#DEE9E9"/>
<path d="M18.2997 455.5C14.9997 453.5 9.89971 452.4 7.69971 455.1C7.99971 454.2 8.49968 453.4 9.29968 453C11.2997 452 14.6997 451.3 20.1997 454.9C26.9997 459.4 25.8997 463 24.9997 464.7C25.2997 460.1 21.9997 457.7 18.2997 455.5Z" fill="#566B6B"/>
<path opacity="0.32" d="M37 416.9L45.6 406.7C49.4 408.4 53.3 409.1 57.3 408.7L47.2 433.7C45.5 431.1 37.1 417.1 37 416.9Z" fill="#606B6B"/>
<path d="M43.1997 420.2L37.1997 416.6L61.8997 403L64.4997 406.2L60.9997 415.9C61.0997 415.9 50.6997 416.1 43.1997 420.2Z" fill="#767371"/>
<path d="M53.6997 411.2C52.5997 410.7 51.6997 410.2 50.3997 410C50.1997 409.9 49.9997 409.9 49.7997 409.9L49.6997 409.8L61.8997 403.1L64.4997 406.3L61.0997 415.9C57.8997 413.5 56.0997 412.4 53.6997 411.2Z" fill="#484441"/>
<path d="M61.8997 403C61.8997 403 51.8997 399.3 43.3997 406.1L37.1997 416.6C37.1997 416.6 52.3997 411.2 58.1997 413.7L61.8997 403Z" fill="#1B4755"/>
<path d="M79.2996 378C79.2996 378 81.8996 377.1 87.6996 380.4C91.0996 382.3 94.0996 386.8 94.0996 386.8L88.2996 398.6L73.5996 388.6L79.2996 378Z" fill="#1B4755"/>
<path d="M36.1997 444.3L71.1997 383.8C71.1997 383.8 76.8997 382.1 83.9997 386.5C91.5997 391.2 94.3997 396.5 94.3997 396.5L71.1997 463.3L36.1997 444.3Z" fill="#20669C"/>
<path opacity="0.5" d="M80.0997 437.8L71.2997 463.2L36.1997 444.3L48.9997 422.1C49.0997 422.1 65.5997 416.2 80.0997 437.8Z" fill="#A4A6A4"/>
<path d="M35.3999 443.7L43.8999 428.1C43.8999 428.1 50.9999 422.6 65.5999 430.8C74.7999 435.9 79.1999 445.1 79.1999 445.1L71.2999 463.1L35.3999 443.7Z" fill="#C2C2C2"/>
<path d="M78.3998 446.7L78.4998 446.5C78.4998 446.5 74.0998 437.3 64.8998 432.2C50.8998 424.4 43.7998 429.1 43.2998 429.5L43.9998 428.3C43.9998 428.3 51.0998 422.8 65.6998 431C74.8998 436.1 79.2998 445.3 79.2998 445.3L78.5998 446.9C78.4998 446.7 78.3998 446.7 78.3998 446.7Z" fill="#E1E2E2"/>
<path d="M34.5999 450.9C33.5999 447.5 35.1999 442.7 38.1999 441C42.1999 438.7 49.2999 436.7 60.7999 443.4C75.2999 451.9 72.9999 459.5 71.2999 463.2C70.3999 465.3 61.1999 471.4 47.1999 463.5C39.2999 459.1 35.6999 454.6 34.5999 450.9Z" fill="#CFCFCF"/>
<path d="M39 451.8C38.2 449.3 39 446.3 41.2 445.1C44.2 443.4 49.4 442 58 447.1C68.9 453.5 67.2 459.1 66 461.8C65.3 463.3 58.6 466.8 48.2 460.8C42.7 457.7 39.9 454.6 39 451.8Z" fill="#6F6B69"/>
<path d="M43.8998 451.5C43.2998 449.8 43.8998 447.7 45.3998 446.8C47.4998 445.6 51.0998 444.7 57.0998 448.2C64.6998 452.7 63.4998 456.5 62.6998 458.5C62.2998 459.6 57.5998 462 50.2998 457.8C46.5998 455.6 44.5998 453.5 43.8998 451.5Z" fill="#DEE9E9"/>
<path d="M55.0999 449C51.4999 447.1 46.0999 446.1 43.8999 449.1C44.0999 448.1 44.5999 447.3 45.4999 446.8C47.5999 445.6 51.1999 444.7 57.1999 448.2C64.6999 452.6 63.6999 456.4 62.8999 458.4C62.6999 453.5 59.0999 451.2 55.0999 449Z" fill="#566B6B"/>
<path d="M65.6996 347C65.3996 347 65.0996 346.9 64.7996 346.9C77.5996 343 92.8996 345 101.3 355.4C103.7 358.4 105.4 361.9 106.7 365.5C111 377.3 110.9 390.6 106.5 402.3C102.1 414 93.2996 424.1 82.2996 430.1C83.0996 429.6 82.4996 429 82.6996 428C83.5996 423.8 83.6996 418.3 87.1996 415.9C90.6996 413.5 92.8996 409.5 94.4996 405.6C99.4996 393.7 101.1 380.4 98.9996 367.7C98.7996 366.3 98.4996 364.9 98.0996 363.6C95.6996 359.8 92.7996 356.4 89.0996 353.8C82.4996 350.4 74.5996 349.7 67.1996 352.3C66.0996 352.7 64.9997 353.2 63.8997 353.7C50.2997 363.9 40.7996 379 37.4996 395.5C35.0996 398.1 32.8996 400.9 30.6996 403.7V403.6C30.5996 403.3 30.5996 403.1 30.5996 402.7C33.1996 387.5 38.6997 371.5 48.3997 359.4C52.9997 353.8 58.9996 349.2 65.6996 347Z" fill="#10363F"/>
<path d="M278.1 222.9L246.9 207.5L191.8 194.8L154.9 200C154.9 200 149.4 202.9 137.9 251.8C126.3 300.6 139.6 377.5 139.6 377.5C126.7 395.1 124.9 404.4 132.5 419.8C173.9 447.1 265.6 461.8 280.1 435.4C284.4 420.7 275.6 409.9 275.3 333.8L278.1 222.9Z" fill="#D9CEBB"/>
<path d="M210.126 22.5892C217.212 21.4339 222.553 18.0229 222.056 14.9703C221.558 11.9177 215.41 10.3796 208.324 11.5348C201.237 12.69 195.896 16.1011 196.394 19.1537C196.891 22.2063 203.039 23.7444 210.126 22.5892Z" fill="#AD9A7F"/>
<path d="M236.239 147.497C277.854 138.478 305.255 101.939 297.441 65.8834C289.627 29.8282 249.557 7.91081 207.943 16.9295C166.328 25.9482 138.927 62.4878 146.741 98.5429C154.555 134.598 194.624 156.515 236.239 147.497Z" fill="#D9CEBB"/>
<path d="M161.1 94.7004C154 62.1004 175.8 29.0004 210.9 16.4004C209.9 16.6004 208.9 16.8004 208 17.0004C166.4 26.0004 139 62.6004 146.8 98.6004C154.6 134.6 194.7 156.6 236.3 147.5C240.2 146.6 244 145.5 247.7 144.2C207.1 151.6 168.7 129.9 161.1 94.7004Z" fill="#AD9A7F"/>
<path d="M163.2 62.1002C159.1 64.6002 155 67.3002 151.3 70.4002C149.6 71.8002 148 73.3002 146.4 74.9002C145.2 81.0002 145 87.4002 145.8 93.7002C149.1 88.8002 153.1 84.3002 157.8 80.5002C161.2 77.7002 164.9 75.2002 168.7 72.9002C204.5 51.3002 251.2 47.0002 290.5 61.6002C292.7 62.4002 294.9 63.3002 297.1 64.4002C295.7 58.6002 293.4 53.1002 290.4 48.1002C248.9 34.4002 200.6 39.6002 163.2 62.1002Z" fill="#8E7253"/>
<path d="M306.9 87.1C305.3 77.9 297.8 70.5 288.9 66.4C280.1 62.3 270.1 61 260.3 59.9C236.7 57.5 211.8 56.7 190 65.9C180.5 69.9 171.8 75.7 164 82.3C157.7 87.6 151.8 93.4 147.5 100.2C143.8 106.2 141.5 114 145.3 119.9C147.2 122.8 150.3 124.9 153.6 126.3C162 129.9 171.5 130 180.7 130.1C193.4 130.2 206.4 130.2 218.7 127.2C229.9 124.4 240.2 119.2 250.9 115.1C256.3 113 261.9 111.2 267.6 110.1C273.1 109 276.2 106.6 281.7 107C284.9 107.2 287.3 108.3 292.1 108.6C295.9 108.8 300.7 105 302.9 102.1C305.7 98.3 307.2 93.6 306.9 89C307.1 88.2 307 87.7 306.9 87.1Z" fill="#AD9A7F"/>
<path d="M169 129.7C165 130.8 160.8 131.1 156.7 130.6C150 129.8 143.2 126.5 140.2 120.7C136.8 114.2 138.9 106.2 142.3 99.6C146.1 92.3 151.4 85.8 157.8 80.4C161.2 77.6 164.9 75.1 168.7 72.8C204.5 51.2 251.2 46.9 290.5 61.5C297.9 64.2 305.3 67.9 309.7 74.1C314.2 80.4 314.8 89 311.3 95.9C307.8 102.8 300.3 107.7 292.2 108.5C299.8 106.5 305.4 98.7 305.1 91.3C304.9 86.2 302.2 81.5 298.4 77.9C294.6 74.3 289.9 71.8 284.9 69.7C262.1 60.3 235.8 61 211.2 65.7C204.8 66.9 198.5 68.4 192.5 70.9C185.4 73.8 179 78.1 172.7 82.3C162.9 89 152.5 96.9 149.7 108C148.8 111.6 148.8 115.6 150.8 118.7C152.3 121.1 154.7 122.8 157.1 124.2C160.9 126.5 164.9 128.3 169.2 129.8C170.2 130 169.7 130.1 169 129.7Z" fill="#D9CEBB"/>
<path d="M149.6 388.2C140.8 366.9 154.8 267.8 154.8 267.8L135.8 301.2L128 358.8C113.2 383.5 123.5 412.8 140.8 426.6C199.9 452.7 232.1 456.3 273.1 443.9C286.3 440.5 286 428.5 278.6 400.4C278.6 400.4 272.3 428.7 229.1 425.6C185.8 422.3 158.4 409.5 149.6 388.2Z" fill="#AD9A7F"/>
<path d="M136.5 417.3C151 414.5 154.9 403.3 154.9 403.3L173.4 419.2C173.4 419.2 145.4 428.8 131.8 428.8C118.2 428.8 114.4 419.3 114.4 419.3C114.4 419.3 110.3 410 117.6 406.2C124.9 402.3 122 420.1 136.5 417.3Z" fill="#354148"/>
<path d="M185.3 184.4L245.4 188.8L249 200.7L187.1 191.5L185.3 184.4Z" fill="#AD8A66"/>
<path d="M246.2 195.6C246.2 195.6 244.6 195.6 238.9 194.8C232.4 193.9 195.3 170.5 195.3 170.5L190.7 194.8L206.6 224.5C206.6 224.5 217.3 242.4 232 240.2C246.7 238 245 219 245 219L246.2 195.6Z" fill="#F7B49A"/>
<path d="M245.799 207.5C245.799 207.5 245.799 218 231.399 215.8C216.899 213.6 193.399 180.8 193.399 180.8L195.099 161.6L238.599 162.2L246.599 196.1L245.799 207.5Z" fill="#F49578"/>
<path d="M216.9 237.5L203.7 224.8L215.8 213.4L216.9 237.5Z" fill="#8E7253"/>
<path d="M190.7 194.8L206.6 224.5C206.6 224.5 217.3 242.4 232 240.2C246.7 238 247.5 224.2 247.5 224.2L248.5 210.9" stroke="#AD9A7F" stroke-width="4.027" stroke-miterlimit="10" stroke-linecap="round" stroke-linejoin="round"/>
<path d="M185.3 184.4L215.7 213.4L196.3 231.6C194.5 233.3 191.4 232.6 190.6 230.4C187 220.6 179.5 198.6 178 194.7C177.8 194.2 184.3 184 185.3 184.4Z" fill="#AD8A66"/>
<path d="M234.1 239.6C234.1 239.6 237.7 265 239.1 278" stroke="#AD9A7F" stroke-width="4.027" stroke-miterlimit="10" stroke-linecap="round" stroke-linejoin="round"/>
<path d="M281.8 161.4C283.1 143.6 283.1 109.4 283.1 109.4C283.1 109.4 281.1 61.8 229.4 65.1C177.8 68.4 173.3 102.7 173.3 102.7C173.3 102.7 192.9 171.7 195.5 174.3C198.1 176.9 238.8 197.9 248.2 196.7C257.7 195.5 280.4 179.2 281.8 161.4Z" fill="#F7B49A"/>
<path d="M283.1 113.3C281.9 113.1 270.1 109.4 260.4 104.7C250.7 100 243.2 92.7004 243.2 92.7004C243.2 92.7004 235 99.3004 224.5 105.6C214 111.9 196.7 116.4 196.7 116.4C196.7 116.4 195.1 152.6 194.8 153.3C194.5 154.1 189.4 155.2 189 155C188.6 154.7 188.4 154.1 188.3 153.5C187.2 148.7 159.6 95.8004 167.9 89.8004C176.2 83.8004 202.1 66.4004 237.3 66.4004C272.5 66.4004 286.8 74.4004 286.8 74.4004C286.8 74.4004 289.7 77.3004 292.4 91.4004" fill="#F49578"/>
<path d="M249 144.4C249 144.4 256.3 151.5 249.6 156.6" stroke="#CC5F4A" stroke-width="4.027" stroke-linecap="round" stroke-linejoin="round"/>
<path d="M221.1 126C222.8 124.9 224.8 124.3 226.9 124.2C228.9 124.1 231 124.6 232.8 125.6" stroke="#001E58" stroke-width="4.027" stroke-linecap="round" stroke-linejoin="round"/>
<path d="M225 141C227.5 140.8 229.3 138 229 134.7C228.7 131.4 226.5 128.9 224 129.1C221.5 129.3 219.7 132.1 220 135.4C220.3 138.7 222.5 141.2 225 141Z" fill="#001E58"/>
<path d="M211.6 120.2C211.6 120.2 227 111.7 237.5 120" stroke="#001E58" stroke-width="5.0338" stroke-linecap="round" stroke-linejoin="round"/>
<path d="M272 125.5C270.5 124.5 268.7 124 266.9 123.9C265.1 123.8 263.3 124.2 261.7 125.1" stroke="#001E58" stroke-width="4.027" stroke-linecap="round" stroke-linejoin="round"/>
<path d="M266.3 140.3C268.8 140.1 270.6 137.3 270.3 134C270 130.7 267.8 128.2 265.3 128.4C262.8 128.6 261 131.4 261.3 134.7C261.5 137.9 263.8 140.5 266.3 140.3Z" fill="#001E58"/>
<path d="M276.5 118.6C276.5 118.6 266.9 111.7 257.5 119" stroke="#001E58" stroke-width="5.0338" stroke-linecap="round" stroke-linejoin="round"/>
<path d="M155.6 97.2004C155.6 97.2004 159.7 91.8004 168 85.8004C176.4 79.8004 202.2 62.4004 237.4 62.4004C272.6 62.4004 286.9 70.4004 286.9 70.4004C286.9 70.4004 289.8 73.3004 292.5 87.4004C295.2 101.5 293.5 114 292.4 120.7C291.3 127.4 282.8 134.3 282.8 134.3C282.8 134.3 282.9 115 283.1 109.4C281.9 109.2 270.1 105.5 260.4 100.8C250.7 96.1004 243.2 86.4004 243.2 86.4004C243.2 86.4004 235 95.4004 224.5 101.7C214 108 196.7 112.5 196.7 112.5C196.7 112.5 195.1 148.7 194.8 149.4C194.5 150.2 189.4 151.3 189 151.1C188.6 150.8 188.4 150.2 188.3 149.6C187.2 144.8 174.9 146.5 175.8 149.6C173.3 148.8 162.9 148.6 157.6 129.4C152.5 110.2 155.6 97.2004 155.6 97.2004Z" fill="#282828"/>
<path d="M243.2 75.6001C249.9 81.3001 257.5 85.7001 265.8 88.7001" stroke="white" stroke-width="4.027" stroke-linecap="round" stroke-linejoin="round"/>
<path d="M274.9 91.4004L279.1 91.7004" stroke="white" stroke-width="4.027" stroke-linecap="round" stroke-linejoin="round"/>
<path d="M167.8 129C176.5 122.5 185.1 133.9 185.1 133.9L196.8 171.9C196.8 171.9 176.4 163.4 171.2 156.9C166 150.5 159.1 135.5 167.8 129Z" fill="#F7B49A"/>
<path d="M185.6 145.3C185.6 145.3 180.2 133.8 174.9 133.9C169.5 134 170.3 140.5 170.3 140.5C170.3 140.5 179.3 142.3 179.6 145.8C179.9 149.3 175.4 146.2 174.7 148.9C174 151.6 185.9 160.9 185.9 160.9L185.6 145.3Z" fill="#F49578"/>
<path d="M153.1 206.5C147.7 204.5 138.3 200.7 125.1 218.5C111.9 236.2 93.8999 279.4 93.8999 279.4C93.8999 279.4 85.2999 303.9 83.0999 314.4C80.8999 324.9 73.8999 345.1 93.6999 353.4C113.5 361.6 127.2 342.7 127.2 342.7C127.2 342.7 166.8 249.7 165.9 233.5C165 217.3 158.5 208.5 153.1 206.5Z" fill="#D9CEBB"/>
<path d="M195.9 295.3C188.6 243.7 171.8 198.6 171.8 198.6C171.8 198.6 164.2 192.1 151.9 195.5C139.6 198.9 135.7 208 135.7 208C135.7 208 161.2 266.2 168.2 301.2C175.2 336.2 154.8 403.2 154.8 403.2L173.3 419.1C173.4 419.2 203.2 346.9 195.9 295.3Z" fill="#247DA0"/>
<path d="M177.1 338.9C177.1 338.9 175 352.7 173.3 362.8C171.6 372.9 166.2 390.9 166.2 390.9" stroke="#255A73" stroke-width="4.027" stroke-linecap="round" stroke-linejoin="round"/>
<path d="M146 207C146 207 152.799 220 159.099 237.5C165.399 254.9 168.5 270 168.5 270" stroke="#255A73" stroke-width="4.027" stroke-linecap="round" stroke-linejoin="round"/>
<path d="M194.6 171.7C203.6 179.1 230.3 197.2 245.8 197.2" stroke="#ED8269" stroke-width="4.027" stroke-linecap="round" stroke-linejoin="round"/>
<path d="M252.9 285L250.7 275.5L282 273.5L284.2 283L252.9 285Z" fill="#AD9A7F"/>
<path d="M397.7 374.501C397.7 374.501 367.5 377.401 374.5 367.901C381.9 357.801 388.3 356.901 402.9 353.901C411.7 352.101 424.1 350.301 424.1 355.901C424.1 360.901 418.3 363.401 410.2 366.101C402.5 368.601 397.7 374.501 397.7 374.501Z" fill="#F7B49A"/>
<path d="M403.9 381.9C408 383.3 416.6 384.7 419.5 384.8C425 384.9 430.6 384.2 434.2 383.6C438 382.9 443.3 381 445.6 379.7C451.2 376.8 447.1 371 441.4 372.7C439.9 373.2 434 374.7 425.3 374.4C416.7 374.1 410.9 373.4 406.6 371.8C403.4 373.2 403.9 381.9 403.9 381.9Z" fill="#F7B49A"/>
<path d="M405.5 389.201C409.4 390.901 417.7 392.901 420.5 393.201C425.9 393.701 431.4 393.501 434.9 393.101C438.7 392.701 443.9 391.201 446.3 390.201C452 387.701 448.3 381.801 442.7 383.001C441.1 383.301 437.9 383.801 434 383.901C430.2 384.001 425.5 383.501 422.7 382.601C420.7 382.001 414 379.401 409.9 377.601C406.7 378.701 405.5 389.201 405.5 389.201Z" fill="#F7B49A"/>
<path d="M405.5 389.201C409.4 390.901 417.7 392.901 420.5 393.201C425.9 393.701 431.4 393.501 434.9 393.101C438.7 392.701 443.9 391.201 446.3 390.201C452 387.701 448.3 381.801 442.7 383.001C441.1 383.301 437.9 383.801 434 383.901C430.2 384.001 425.5 383.501 422.7 382.601C420.7 382.001 414 379.401 409.9 377.601" stroke="#ED8269" stroke-width="3.8401" stroke-linecap="round" stroke-linejoin="round"/>
<path d="M370.3 382.4C375 390.5 383.9 394.1 392.8 398.7C402.4 403.6 401.6 403.5 406.5 396.8C412.2 389.2 413.8 374 413.8 374C413.8 374 401.2 366 387.3 363C372.9 359.7 368.1 378.7 370.3 382.4Z" fill="#F7B49A"/>
<path d="M401.1 393.801C404.9 395.901 413 398.801 415.9 399.401C421.3 400.501 426.9 400.801 430.5 400.801C434.4 400.801 439.8 399.801 442.4 399.101C448.4 397.201 445.4 390.801 439.5 391.501C437.9 391.701 434.6 391.801 430.6 391.501C426.8 391.301 422.1 390.201 419.3 389.001C417.3 388.201 410.9 384.901 407 382.601C403.5 383.401 401.1 393.801 401.1 393.801Z" fill="#F7B49A"/>
<path d="M401.1 393.801C404.9 395.901 413 398.801 415.9 399.401C421.3 400.501 426.9 400.801 430.5 400.801C434.4 400.801 439.8 399.801 442.4 399.101C448.4 397.201 445.4 390.801 439.5 391.501C437.9 391.701 434.6 391.801 430.6 391.501C426.8 391.301 422.1 390.201 419.3 389.001C417.3 388.201 410.9 384.901 407 382.601" stroke="#ED8269" stroke-width="3.8401" stroke-linecap="round" stroke-linejoin="round"/>
<path d="M395.5 400.1C399.3 402.2 407.4 405.1 410.2 405.7C415.6 406.8 421.2 407.2 424.8 407.1C428.7 407.1 434.1 406.2 436.7 405.4C442.7 403.5 439.7 397.1 433.8 397.8C432.2 398 428.9 398 424.9 397.8C421.1 397.6 416.4 396.5 413.6 395.3C411.6 394.5 405.2 391.2 401.3 388.9C397.9 389.7 395.5 400.1 395.5 400.1Z" fill="#F7B49A"/>
<path d="M403.1 389.901C396.1 384.801 392.7 378.901 383 375.601C377.5 373.701 372.5 375.901 369.9 378.701C369.8 380.301 369.9 381.601 370.3 382.301C375 390.401 383.9 394.001 392.8 398.601C394.5 399.501 395.8 400.101 396.9 400.701C397.1 400.501 400.2 396.601 403.1 389.901Z" fill="#F7B49A"/>
<path d="M370.3 382.4C375 390.5 383.9 394.1 392.8 398.7C393.8 399.2 394.7 399.7 395.6 400.1C399.4 402.2 407.5 405.1 410.3 405.7C415.7 406.8 421.3 407.2 424.9 407.1C428.8 407.1 434.2 406.2 436.8 405.4C442.8 403.5 439.8 397.1 433.9 397.8C432.3 398 429 398 425 397.8C421.2 397.6 416.5 396.5 413.7 395.3C412 394.6 407 392 403.1 389.9" stroke="#ED8269" stroke-width="3.8401" stroke-linecap="round" stroke-linejoin="round"/>
<path d="M386.2 360.9L372 393.5C372 393.5 300 373.5 289 367.5C278.1 361.5 272.3 352.4 279.4 334.9C286.4 317.4 298.4 311.3 307 314.2C315.6 317.1 386.2 360.9 386.2 360.9Z" fill="#D9CEBB"/>
<path d="M317.2 320.5C345.7 335.7 386.2 360.9 386.2 360.9L372 393.5" stroke="#AD9A7F" stroke-width="4.027" stroke-linecap="round" stroke-linejoin="round"/>
<path d="M369.8 399.2L351.9 391.7C350.9 391.3 350.4 390.1 350.9 389.1L368.1 348.4C368.5 347.4 369.7 346.9 370.7 347.4L388.6 354.9C389.6 355.3 390.1 356.5 389.6 357.5L372.4 398.2C371.9 399.2 370.8 399.7 369.8 399.2Z" fill="#AD8A66"/>
<path d="M253.8 213.3C256 208.7 261.3 208.7 271.1 211.3C280.9 213.9 282.9 220.3 282.9 220.3C282.9 220.3 290.3 247 291.5 273.2C292.7 299.4 286 344 275.9 364.3C275.9 364.3 275.2 307.8 271.1 277.5C267.1 247.2 253.8 213.3 253.8 213.3Z" fill="#247DA0"/>
<path d="M256.9 202.7L259.4 224.1L250.4 215.1L256.9 202.7Z" fill="#AD8A66"/>
<path d="M246.5 197.1L256.9 202.7L243.5 228.3L245.4 209.7L246.5 197.1Z" fill="#8E7253"/>
<path d="M230.6 169C230.6 169 238.9 177.5 249.2 176.2C259.5 174.9 260.2 171.3 260.2 171.3" stroke="#CC5F4A" stroke-width="4" stroke-linecap="round" stroke-linejoin="round"/>
<path d="M265.3 805.8C265.9 810.1 267.9 818.8 283 818.6C298.1 818.4 300.9 808.8 302 804.6C300.3 762.9 299.5 679.1 311.4 616.9C312.7 610.2 287.5 592.9 270.3 599.1C257.6 603.7 245.5 620 245.3 631.9C245.1 643.8 248.4 747 265.3 805.8Z" fill="#F7B49A"/>
<path d="M311.2 615C308.7 607.5 286.2 593.3 270.3 599C257.6 603.6 245.5 619.9 245.3 631.8C245.2 636.2 245.4 650.2 246.5 669.1C254.8 668 264.1 665 284 653C298.7 644.2 306 634.5 308.9 630C309.5 626.1 310.2 622.2 311 618.3C311.1 617.3 311.2 616.1 311.2 615Z" fill="#F49578"/>
<path d="M245.5 818.4C251.1 807.1 262 793.8 281.8 793.8C295.8 793.8 304 801.7 313.5 810.9C316.5 813.8 319.6 816.8 323.2 819.8C325.1 821.4 334.2 834.3 349.1 834.2C364 834 377.9 845.5 377.9 859.4C377.9 860.6 378.1 863.1 377.9 864.3H340.7C329.7 866.5 308.1 871 308.1 871H238.8C231.6 848.4 240.9 830.5 244.3 822.3C244.8 821 245.2 819.7 245.5 818.4Z" fill="#543C25"/>
<path d="M378 861.9L236.1 861.2L236.2 876.4C236.2 877.6 237.3 878.5 238.6 878.5H260C261.3 878.5 262.4 877.6 262.4 876.4V871.4H284.3L285.4 875.8C286.2 877.4 288 878.5 290 878.5C290 878.5 301.8 878.5 304.6 878.5C304.6 878.5 338.7 878.5 358.9 878.5C379.1 878.5 377.9 869.2 377.9 869.2V861.9H378Z" fill="#8E7253"/>
<path d="M245.5 818.2C246 815.9 245.7 776.2 245.7 776.2C245.7 776.2 265.2 781.4 277.8 781.4C290.4 781.4 290 771.2 301.4 771.2C312.8 771.2 315.5 780.3 315.5 780.4C312 815 322.6 819.1 329.1 824.4C328.5 823.8 328.4 823.7 328.5 823.8C328.8 824.1 328.9 824.5 328.6 824.9C328.4 825.3 327.9 825.4 327.4 825.4C320.2 824 308 825 301.4 829.2L296.1 832.4L289.9 832.7L245.5 818.2Z" fill="#543C25"/>
<path d="M354.6 834.5C354.6 834.5 351 834 349.2 834.1C340 834.2 333 829.3 328.5 825.2C328.6 825.1 328.6 825.1 328.7 825C328.9 824.7 328.9 824.4 328.7 824.2C322.1 819 312 814.4 315.4 780.4C315.4 780.3 312.7 771.2 301.3 771.2C293.9 771.2 291.5 775.5 287.3 778.5V791.5C287.3 791.5 289.8 805.9 293.1 811C296.4 816.1 305 831.3 312.8 835.6C320.6 839.9 328.8 839.4 341 839.4C353.4 839.4 354.6 834.5 354.6 834.5Z" fill="#8E7253"/>
<path d="M287.3 797.8C287.7 797.8 288 797.7 288.3 797.5C294.9 793.6 311.3 793.3 314.5 796.8C315.3 797.6 316.6 797.7 317.4 796.9C318.2 796.1 318.3 794.8 317.5 794C312.2 788.3 293.4 789.7 286.2 793.9C285.2 794.5 284.9 795.7 285.5 796.7C285.9 797.4 286.6 797.8 287.3 797.8Z" fill="#D9CEBB"/>
<path d="M291.5 813.3C291.8 813.3 292.2 813.2 292.5 813C299.2 809.2 313.7 807.7 317.5 811.4C318.3 812.2 319.6 812.1 320.4 811.3C321.2 810.5 321.2 809.2 320.3 808.4C314.5 802.9 297.9 805.1 290.4 809.4C289.4 810 289.1 811.2 289.6 812.2C290.1 812.9 290.8 813.3 291.5 813.3Z" fill="#D9CEBB"/>
<path d="M302.8 828C303.2 828 303.7 827.9 304 827.6C311.1 822.3 324.6 821.1 328.5 825.2C329.3 826 330.6 826 331.4 825.3C332.2 824.5 332.3 823.2 331.5 822.4C325.5 816.2 309.6 818.3 301.5 824.3C300.6 825 300.4 826.3 301.1 827.2C301.5 827.7 302.1 828 302.8 828Z" fill="#D9CEBB"/>
<path d="M349.2 834.1C364.1 833.9 378 845.4 378 859.3" stroke="#F2F3F3" stroke-width="4.027" stroke-linecap="round" stroke-linejoin="round"/>
<path d="M122.8 799.6C122.7 803.9 124.5 812.9 137.1 814.9C149.6 816.8 156.3 807.8 157.9 803.8C163 778.2 170.4 713.9 193.2 629.5C193.5 628.2 169.9 605.4 154.6 607.2C140.5 608.9 129.1 626.8 124.6 636C120.1 645.2 115.6 740.8 122.8 799.6Z" fill="#F7B49A"/>
<path d="M113 818.4C118.7 807.1 129.6 793.8 149.6 793.8C163.7 793.8 172 801.7 181.6 810.9C184.6 813.8 187.8 816.8 191.4 819.8C193.3 821.4 202.5 834.3 217.5 834.2C232.6 834 246.5 845.5 246.5 859.4C246.5 860.6 246.7 863.1 246.5 864.3H209C197.9 866.5 176.1 871 176.1 871H106.2C99 848.4 108.3 830.5 111.8 822.3C112.3 821 112.7 819.7 113 818.4Z" fill="#543C25"/>
<path d="M246.7 861.9L103.6 861.2L103.7 876.4C103.7 877.6 104.8 878.5 106.1 878.5H127.7C129 878.5 130.1 877.6 130.1 876.4V871.4H152.2L153.3 875.8C154.1 877.4 155.9 878.5 157.9 878.5C157.9 878.5 169.8 878.5 172.7 878.5C172.7 878.5 207.1 878.5 227.5 878.5C247.9 878.5 246.6 869.2 246.6 869.2V861.9H246.7Z" fill="#8E7253"/>
<path d="M113 818.2C113.5 815.9 113.2 776.2 113.2 776.2C113.2 776.2 132.9 781.4 145.6 781.4C158.3 781.4 157.9 771.2 169.4 771.2C180.9 771.2 183.6 780.3 183.6 780.4C180.1 815 190.7 819.1 197.4 824.4C196.8 823.8 196.7 823.7 196.8 823.8C197.1 824.1 197.2 824.5 197 824.9C196.8 825.3 196.3 825.4 195.8 825.4C188.6 824 176.2 825 169.6 829.2L164.3 832.4L158 832.7L113 818.2Z" fill="#543C25"/>
<path d="M223 834.5C223 834.5 219.4 834 217.5 834.1C208.2 834.2 201.1 829.3 196.7 825.2C196.8 825.1 196.8 825.1 196.9 825C197.1 824.7 197.1 824.4 196.9 824.2C190.3 819 180.1 814.4 183.5 780.4C183.5 780.3 180.8 771.2 169.3 771.2C161.9 771.2 159.4 775.5 155.2 778.5V791.5C155.2 791.5 157.8 805.9 161 811C164.3 816.1 173 831.3 180.9 835.6C188.7 839.9 197 839.4 209.4 839.4C221.8 839.4 223 834.5 223 834.5Z" fill="#8E7253"/>
<path d="M155.2 797.8C155.6 797.8 155.9 797.7 156.3 797.5C163 793.6 179.5 793.3 182.7 796.8C183.5 797.6 184.8 797.7 185.6 796.9C186.4 796.1 186.5 794.8 185.7 794C180.4 788.3 161.4 789.7 154.1 793.9C153.1 794.5 152.8 795.7 153.4 796.7C153.8 797.4 154.5 797.8 155.2 797.8Z" fill="#D9CEBB"/>
<path d="M159.4 813.3C159.8 813.3 160.1 813.2 160.4 813C167.1 809.2 181.7 807.7 185.6 811.4C186.4 812.2 187.8 812.1 188.5 811.3C189.3 810.5 189.3 809.2 188.4 808.4C182.6 802.9 165.9 805.1 158.2 809.4C157.2 810 156.9 811.2 157.4 812.2C158 812.9 158.7 813.3 159.4 813.3Z" fill="#D9CEBB"/>
<path d="M170.8 828C171.2 828 171.7 827.9 172 827.6C179.2 822.3 192.7 821.1 196.7 825.2C197.5 826 198.8 826 199.6 825.3C200.4 824.5 200.5 823.2 199.7 822.4C193.7 816.2 177.7 818.3 169.4 824.3C168.5 825 168.3 826.3 169 827.2C169.5 827.7 170.1 828 170.8 828Z" fill="#D9CEBB"/>
<path d="M217.5 834.1C232.6 833.9 246.5 845.4 246.5 859.3" stroke="#F2F3F3" stroke-width="4.027" stroke-linecap="round" stroke-linejoin="round"/>
<path d="M154.6 607.2C140.5 608.9 129.1 626.8 124.6 636C123.1 639.1 121.5 651.2 120.5 668.1C127.2 667.9 165.8 666.4 183.9 666.2C186.7 654.7 189.8 642.5 193.3 629.6C193.5 628.3 169.8 605.4 154.6 607.2Z" fill="#F49578"/>
<path d="M276.8 460.6C279.4 462 317.8 585.4 321.1 618.4C319.4 620.3 236.1 641.1 236.1 641.1C236.1 641.1 227 611.5 219.3 589.1C211.8 567.4 178.3 515.1 179.1 485.5C179.1 484.6 179.2 483.7 179.3 482.8C182 454.1 276.8 460.6 276.8 460.6Z" fill="#8E7253"/>
<path d="M229.5 474.9C231.4 477.2 210.1 589.6 208.7 616.7C207.3 643.8 205 645.6 202.8 646.8C200.6 648 123.2 648.4 116.5 645.7C109.8 642.9 120.4 583.7 121.4 560.1C122.4 537.2 110.4 476.2 122 449C122.4 448.2 122.7 447.4 123.1 446.6C136.3 420.7 229.5 474.9 229.5 474.9Z" fill="#8E7253"/>
<path d="M228.9 474.6C230.8 476.9 209.5 589.3 208.1 616.4C206.8 643.5 204.5 645.3 202.2 646.5C200 647.7 122.6 648.1 115.9 645.4" stroke="#543C25" stroke-width="4.027" stroke-linecap="round" stroke-linejoin="round"/>
<path d="M143.1 469.8C144.9 474.3 150.7 483.8 152.7 486.3C156.5 491.1 160.9 495.5 163.9 498C167.1 500.8 172.2 504 174.8 505.1C180.9 507.9 182.4 500.3 177.1 496.6C175.7 495.6 172.9 493.3 169.7 490.2C166.7 487.2 163.5 482.9 161.9 480C160.8 477.9 157.5 470.4 155.7 465.7C152.5 463.8 143.1 469.8 143.1 469.8Z" fill="#F7B49A"/>
<path d="M165.1 452.401C165.1 452.401 144.2 426.001 155.9 427.701C169.5 429.601 176.8 438.001 186.9 450.201C193 457.601 199.6 463.001 194.8 466.401C190.5 469.401 186 463.601 179.5 457.501C173.4 451.601 165.1 452.401 165.1 452.401Z" fill="#F7B49A"/>
<path d="M135.4 438.101C134.3 448.301 137.7 457.701 142.3 467.901C147.2 478.901 149 478.001 157.2 475.901C166.7 473.501 176 463.401 176.4 458.301C177 449.701 163.8 433.501 158.7 428.101C153.6 422.701 135.9 433.401 135.4 438.101Z" fill="#F7B49A"/>
<path d="M135.2 443.601C135.6 451.701 138.5 459.501 142.3 467.901C142.6 468.601 142.9 469.201 143.1 469.801C144.9 474.301 150.7 483.801 152.7 486.301C156.5 491.101 160.9 495.501 163.9 498.001C167.1 500.801 172.2 504.001 174.8 505.101C180.9 507.901 182.4 500.301 177.1 496.601C175.7 495.601 172.9 493.301 169.7 490.201C166.7 487.201 163.5 482.901 161.9 480.001C161.4 479.101 160.6 477.301 159.6 475.101" stroke="#ED8269" stroke-width="3.5692" stroke-linecap="round" stroke-linejoin="round"/>
<path d="M149.8 471.401C152.4 475.801 158.1 483.401 164.8 490.601C171.6 497.701 183.5 503.001 186.3 503.901C192.9 505.901 193.1 498.001 187.2 494.901C185.6 494.101 182.4 492.101 178.8 489.301C175.3 486.701 169.7 482.601 167.6 479.801C166.1 477.801 161.1 471.201 158.5 466.601C155 465.101 149.8 471.401 149.8 471.401Z" fill="#F7B49A"/>
<path d="M149.8 471.401C152.4 475.801 158.1 483.401 164.8 490.601C171.6 497.701 183.5 503.001 186.3 503.901C192.9 505.901 193.1 498.001 187.2 494.901C185.6 494.101 182.4 492.101 178.8 489.301C175.3 486.701 169.7 482.601 167.6 479.801C166.1 477.801 161.1 471.201 158.5 466.601" stroke="#ED8269" stroke-width="3.5692" stroke-linecap="round" stroke-linejoin="round"/>
<path d="M157.8 465.201C160 469.501 166.9 479.201 169.1 481.601C173.3 486.001 178 489.901 181.2 492.101C184.6 494.601 189.9 497.201 192.6 498.101C198.8 500.301 199.6 492.701 194.1 489.501C192.6 488.601 189.6 486.601 186.3 483.801C183.1 481.101 179.5 477.201 177.7 474.401C176.4 472.401 171.1 463.401 168.9 458.901C165.5 457.501 157.8 465.201 157.8 465.201Z" fill="#F7B49A"/>
<path d="M157.9 465.8C160.1 470.1 165.8 479.301 173.3 487.401C180.8 495.501 190 497.201 192.7 498.201C198.9 500.401 199.7 492.8 194.2 489.6C192.7 488.7 189.7 486.701 186.4 483.901C183.2 481.201 179.6 477.3 177.8 474.5C176.5 472.5 172.6 465.5 170.4 461" stroke="#ED8269" stroke-width="3.5692" stroke-linecap="round" stroke-linejoin="round"/>
<path d="M163 459.901C165.7 464.601 172.3 473.201 174.8 475.801C179.5 480.701 184.8 484.901 188.4 487.501C192.2 490.201 198 493.101 200.8 494.201C207.5 496.601 207.6 488.201 201.6 484.701C199.9 483.701 196.7 481.501 192.9 478.401C189.3 475.501 185.2 471.101 183 468.101C181.5 465.901 176.7 458.101 174 453.101C170.2 451.301 163 459.901 163 459.901Z" fill="#F7B49A"/>
<path d="M163 459.901C165.7 464.601 172.3 473.201 174.8 475.801C179.5 480.701 184.8 484.901 188.4 487.501C192.2 490.201 198 493.101 200.8 494.201C207.5 496.601 207.6 488.201 201.6 484.701C199.9 483.701 196.7 481.501 192.9 478.401C189.3 475.501 185.2 471.101 183 468.101C181.5 465.901 176.7 458.101 174 453.101" stroke="#ED8269" stroke-width="3.5692" stroke-linecap="round" stroke-linejoin="round"/>
<path d="M143.2 350.9C151.8 370 165.6 426.6 165.6 426.6L128.5 442.4C128.5 442.4 80.9998 354.1 79.3998 341.6C77.7998 329.1 81.9998 309.9 100.8 304.7C119.7 299.6 134.7 331.7 143.2 350.9Z" fill="#D9CEBB"/>
<path d="M92.5996 283.4C92.5996 283.4 77.8997 329.1 79.4997 341.6C81.0997 354.1 128.6 442.4 128.6 442.4L165.7 426.6C165.7 426.6 153.2 371.9 140.7 345.1C128.2 318.3 126.8 316.3 126.8 316.3" stroke="#AD9A7F" stroke-width="4.027" stroke-linecap="round" stroke-linejoin="round"/>
<path d="M127.6 447.2L119.8 429.6C119.4 428.6 119.8 427.4 120.8 426.9L163.8 407.9C164.8 407.5 166 407.9 166.5 408.9L174.3 426.5C174.7 427.5 174.3 428.7 173.3 429.2L130.3 448.2C129.2 448.7 128 448.3 127.6 447.2Z" fill="#AD8A66"/>
</svg>
