<svg width="48" height="64" viewBox="0 0 48 64" fill="none" xmlns="http://www.w3.org/2000/svg">
<rect x="2" y="9.05859" width="44.0367" height="52.9412" rx="6" fill="#A4AEB4" stroke="#687176" stroke-width="2.5"/>
<rect x="2" y="9.05859" width="44.0367" height="49.7326" rx="6" fill="#E7E7E7" stroke="#CDD0D1" stroke-width="2.5"/>
<path d="M6.99023 20.7217C6.99023 19.0648 8.33338 17.7217 9.99023 17.7217H38.0453C39.7021 17.7217 41.0453 19.0648 41.0453 20.7217V61.9998H6.99023V20.7217Z" fill="#D6F1FF"/>
<path d="M6.98988 30.5563V62.0002H41.0449V21.043C41.0449 19.3861 39.7018 18.043 38.0449 18.043H9.98988C8.33302 18.043 6.98988 19.3861 6.98988 21.043V23.6061" stroke="#1BA0E2" stroke-width="2.5" stroke-linecap="round" stroke-linejoin="round"/>
<path fill-rule="evenodd" clip-rule="evenodd" d="M11.2821 5.74375C10.6957 5.74375 10.2207 6.25449 10.2207 6.88457V11.4478C10.2207 12.0779 10.6957 12.5887 11.2821 12.5887H36.7556C37.3421 12.5887 37.817 12.0779 37.817 11.4478V6.88457C37.817 6.25449 37.3421 5.74375 36.7556 5.74375C36.7556 5.74375 31.4025 6.00585 30.3432 5.43259C30.0407 5.26894 29.7578 4.97603 29.4272 4.63327C28.5006 3.67305 27.1967 2.32129 24.0189 2.32129C21.0178 2.32129 19.8269 3.52697 18.8955 4.46985C18.489 4.88175 18.1318 5.24344 17.6945 5.43259C16.3842 5.99992 11.6722 5.78499 11.2821 5.74375ZM24.0189 8.02539C24.6053 8.02539 25.0803 7.51464 25.0803 6.88457C25.0803 6.25449 24.6053 5.74375 24.0189 5.74375C23.4324 5.74375 22.9575 6.25449 22.9575 6.88457C22.9575 7.51464 23.4324 8.02539 24.0189 8.02539Z" fill="#1BA0E2"/>
<path d="M10.2207 6.8354C10.2207 6.21211 10.6957 5.70687 11.2821 5.70687C11.6722 5.74767 16.3842 5.96028 17.6945 5.39906C18.1318 5.21195 18.489 4.85415 18.8955 4.4467C19.8269 3.51398 21.0178 2.32129 24.0189 2.32129C27.1962 2.32129 28.5002 3.65806 29.4268 4.60791L29.4272 4.60836C29.7578 4.94743 30.0407 5.23718 30.3432 5.39906C31.4025 5.96615 36.7556 5.70687 36.7556 5.70687C37.3421 5.70687 37.817 6.21211 37.817 6.8354V7.77583C37.817 7.25643 37.3421 6.8354 36.7556 6.8354C36.7556 6.8354 31.4025 7.05146 30.3432 6.57889C30.0407 6.44398 29.7578 6.20253 29.4272 5.91997L29.4268 5.9196C28.5002 5.12806 27.1962 3.44982 24.0189 3.44982C21.0178 3.44982 20.4393 4.36534 19.5079 5.14261C19.1014 5.48215 18.7119 6.21577 17.6945 6.57889C16.3842 7.04657 11.6722 6.86939 11.2821 6.8354C10.6957 6.8354 10.2207 7.25643 10.2207 7.77583V6.8354Z" fill="#85D6FF"/>
<path d="M24.0189 2C27.1967 2 28.5006 3.36065 29.4272 4.3272C29.7578 4.67221 30.0407 4.96704 30.3432 5.13177C31.4025 5.7088 36.7556 5.44498 36.7556 5.44498C37.3421 5.44498 37.817 5.95908 37.817 6.5933V11.7608C37.817 12.395 37.3421 12.9091 36.7556 12.9091H11.2821C10.6957 12.9091 10.2207 12.395 10.2207 11.7608V8.31579" stroke="#1870C9" stroke-width="2.5" stroke-linecap="round" stroke-linejoin="round"/>
<line x1="24.9746" y1="28.3438" x2="33.9242" y2="28.3438" stroke="#1BA0E2" stroke-width="2.5" stroke-linecap="round" stroke-linejoin="round"/>
<line x1="24.9746" y1="40.5361" x2="33.9242" y2="40.5361" stroke="#1BA0E2" stroke-width="2.5" stroke-linecap="round" stroke-linejoin="round"/>
<line x1="24.9746" y1="50.8037" x2="33.9242" y2="50.8037" stroke="#1BA0E2" stroke-width="2.5" stroke-linecap="round" stroke-linejoin="round"/>
<rect x="12.5684" y="24.46" width="8.51376" height="8.34225" rx="4.17112" fill="#85D6FF"/>
<path d="M13.3488 24.9129L15.4538 28.8088C16.1158 30.0141 17.2543 30.2698 18.0796 29.3981L25.2044 21.8302C25.2044 21.8302 25.8663 20.7856 25.1624 19.9772C24.4586 19.1688 23.876 20.099 23.876 20.099L17.5655 26.7902C17.1661 27.192 16.6211 27.0605 16.3122 26.4834L14.6352 23.3496C14.3175 22.7579 13.735 22.7044 13.3886 23.2352C13.2439 23.4842 13.1638 23.7722 13.1568 24.0679C13.1498 24.3636 13.2162 24.6558 13.3488 24.9129Z" fill="#FF5E1F"/>
<rect x="12.5684" y="36.6523" width="8.51376" height="8.02139" rx="4.01069" fill="#85D6FF"/>
<rect x="12.5684" y="47.8823" width="8.51376" height="7.70053" rx="3.85027" fill="#85D6FF"/>
<path d="M12.7655 37.1052L14.9207 41.0012C15.5984 42.2065 16.764 42.4622 17.6089 41.5904L24.9033 34.0226C24.9033 34.0226 25.581 32.978 24.8604 32.1696C24.1398 31.3612 23.5434 32.2913 23.5434 32.2913L17.0826 38.9826C16.6737 39.3844 16.1157 39.2529 15.7994 38.6758L14.0826 35.542C13.7573 34.9503 13.1609 34.8967 12.8062 35.4276C12.6581 35.6766 12.576 35.9646 12.5689 36.2603C12.5617 36.556 12.6297 36.8482 12.7655 37.1052Z" fill="#FF5E1F"/>
<rect x="7.57812" y="58.4707" width="32.8807" height="3.20856" fill="#85D6FF"/>
</svg>
