<svg width="24" height="24" viewBox="0 0 24 24" fill="none" xmlns="http://www.w3.org/2000/svg">
<path fill-rule="evenodd" clip-rule="evenodd" d="M6.5 7H4C2.89543 7 2 7.89543 2 9V18C2 19.1046 2.89543 20 4 20H20C21.1046 20 22 19.1046 22 18V9C22 7.89543 21.1046 7 20 7H17.5L16.5528 5.10557C16.214 4.428 15.5215 4 14.7639 4H9.23607C8.47852 4 7.786 4.428 7.44721 5.10557L6.5 7Z" stroke="#687176" stroke-width="2" stroke-linecap="round" stroke-linejoin="round"/>
<path d="M16 12.5C16 14.7091 14.2091 16.5 12 16.5C9.79086 16.5 8 14.7091 8 12.5C8 10.2909 9.79086 8.5 12 8.5C14.2091 8.5 16 10.2909 16 12.5Z" stroke="#0194F3" stroke-width="2" stroke-linecap="round" stroke-linejoin="round"/>
</svg>
