<svg width="80" height="80" viewBox="0 0 80 80" fill="none" xmlns="http://www.w3.org/2000/svg">
<path d="M59.3203 62.1177L59.3203 55.5776L21.9772 55.5776L21.9772 62.1177C22.3005 65.0855 30.8684 67.4041 41.2145 67.3114C51.0757 67.265 58.997 64.9928 59.3203 62.1177Z" fill="#FCA000"/>
<mask id="mask0_225_31228" style="mask-type:alpha" maskUnits="userSpaceOnUse" x="21" y="55" width="39" height="13">
<path d="M59.3203 62.2378L59.3203 55.6978L21.9772 55.6978L21.9772 62.2378C22.3005 65.2056 30.8684 67.5242 41.2145 67.4315C51.0757 67.3851 58.997 65.1129 59.3203 62.2378Z" fill="#FCA000"/>
</mask>
<g mask="url(#mask0_225_31228)">
<rect x="25.6016" y="54.7915" width="1.81259" height="11.7818" fill="#EF9800"/>
<rect x="32.8535" y="56.604" width="1.81259" height="11.7818" fill="#EF9800"/>
<rect x="40.1035" y="57.5103" width="1.81259" height="11.7818" fill="#EF9800"/>
<path d="M47.3535 58.4165H49.1661V67.8296L47.3535 67.9392V58.4165Z" fill="#EF9800"/>
<rect x="54.6035" y="54.7915" width="1.81259" height="11.7818" fill="#EF9800"/>
</g>
<path d="M21.9772 55.5774C21.9772 58.5237 30.3367 60.9121 40.6487 60.9121C50.9608 60.9121 59.3203 58.5237 59.3203 55.5774C59.3203 52.6311 50.9608 50.2427 40.6487 50.2427C30.3367 50.2427 21.9772 52.6311 21.9772 55.5774Z" fill="#FFCC00"/>
<path d="M43.751 61.1643C44.0269 61.1518 44.2404 60.918 44.2278 60.6421C44.2153 60.3663 43.9815 60.1528 43.7056 60.1653L43.751 61.1643ZM22.4415 55.4127C22.5441 55.1564 22.4194 54.8654 22.163 54.7628C21.9066 54.6603 21.6156 54.785 21.513 55.0414L22.4415 55.4127ZM43.7056 60.1653C40.3906 60.316 32.5447 60.251 27.5524 58.8246L27.2777 59.7861C32.4358 61.2599 40.4199 61.3157 43.751 61.1643L43.7056 60.1653ZM27.5524 58.8246C25.0533 58.1106 23.7077 57.3098 23.0288 56.6477C22.3452 55.981 22.3946 55.53 22.4415 55.4127L21.513 55.0414C21.2578 55.6793 21.4885 56.5424 22.3306 57.3636C23.1772 58.1893 24.7016 59.0501 27.2777 59.7861L27.5524 58.8246Z" fill="#EF9800"/>
<path d="M62.8516 52.1484L62.8516 45.6084L25.5084 45.6084L25.5084 52.1484C25.8317 55.1163 34.3996 57.4349 44.7458 57.3421C54.607 57.2958 62.5282 55.0235 62.8516 52.1484Z" fill="#FCA000"/>
<mask id="mask1_225_31228" style="mask-type:alpha" maskUnits="userSpaceOnUse" x="25" y="45" width="38" height="13">
<path d="M62.8516 52.2686L62.8516 45.7285L25.5084 45.7285L25.5084 52.2686C25.8317 55.2364 34.3996 57.555 44.7458 57.4622C54.607 57.4159 62.5282 55.1436 62.8516 52.2686Z" fill="#FCA000"/>
</mask>
<g mask="url(#mask1_225_31228)">
<rect x="29.1328" y="44.8223" width="1.81259" height="11.7818" fill="#EF9800"/>
<rect x="36.3848" y="46.6348" width="1.81259" height="11.7818" fill="#EF9800"/>
<rect x="43.6348" y="47.541" width="1.81259" height="11.7818" fill="#EF9800"/>
<path d="M50.8848 48.4473H52.6974V57.8604L50.8848 57.9699V48.4473Z" fill="#EF9800"/>
<rect x="58.1348" y="44.8223" width="1.81259" height="11.7818" fill="#EF9800"/>
</g>
<path d="M25.5084 45.6082C25.5084 48.5545 33.868 50.9429 44.18 50.9429C54.492 50.9429 62.8516 48.5545 62.8516 45.6082C62.8516 42.6619 54.492 40.2734 44.18 40.2734C33.868 40.2734 25.5084 42.6619 25.5084 45.6082Z" fill="#FFCC00"/>
<path d="M62.2138 47.0708C59.9481 48.5813 52.879 51.5117 42.7285 51.1491" stroke="#EF9800" stroke-linecap="round" stroke-linejoin="round"/>
<path d="M59.3203 42.1792L59.3203 35.6392L21.9772 35.6392L21.9772 42.1792C22.3005 45.147 30.8684 47.4656 41.2145 47.3729C51.0757 47.3265 58.997 45.0543 59.3203 42.1792Z" fill="#FCA000"/>
<mask id="mask2_225_31228" style="mask-type:alpha" maskUnits="userSpaceOnUse" x="21" y="35" width="39" height="13">
<path d="M59.3203 42.2993L59.3203 35.7593L21.9772 35.7593L21.9772 42.2993C22.3005 45.2671 30.8684 47.5858 41.2145 47.493C51.0757 47.4466 58.997 45.1744 59.3203 42.2993Z" fill="#FCA000"/>
</mask>
<g mask="url(#mask2_225_31228)">
<rect x="25.6016" y="34.853" width="1.81259" height="11.7818" fill="#EF9800"/>
<rect x="32.8535" y="36.6655" width="1.81259" height="11.7818" fill="#EF9800"/>
<rect x="40.1035" y="37.5718" width="1.81259" height="11.7818" fill="#EF9800"/>
<path d="M47.3535 38.478H49.1661V47.8911L47.3535 48.0007V38.478Z" fill="#EF9800"/>
<rect x="54.6035" y="34.853" width="1.81259" height="11.7818" fill="#EF9800"/>
</g>
<path d="M21.9772 35.6389C21.9772 38.5852 30.3367 40.9737 40.6487 40.9737C50.9608 40.9737 59.3203 38.5852 59.3203 35.6389C59.3203 32.6926 50.9608 30.3042 40.6487 30.3042C30.3367 30.3042 21.9772 32.6926 21.9772 35.6389Z" fill="#FFCC00"/>
<path d="M58.6826 37.1016C56.4168 38.6121 49.3478 41.5424 39.1973 41.1799" stroke="#EF9800" stroke-linecap="round" stroke-linejoin="round"/>
<path d="M40.8001 30.0216C40.6241 30.0165 40.4512 29.9736 40.2932 29.8959C40.1352 29.8182 39.9958 29.7074 39.8844 29.571C39.7729 29.4347 39.6921 29.2759 39.6474 29.1056C39.6027 28.9353 39.5951 28.7574 39.6252 28.5839C39.9887 26.4226 41.4533 21.8182 47.3004 17.2652C53.3333 12.5482 57.3464 12.3247 59.075 14.5524C60.8036 16.78 59.6393 20.6068 53.5885 25.3286C48.0871 29.5987 43.0576 30.0631 40.8001 30.0216Z" fill="#1A9964"/>
<path d="M39.2224 29.1714C38.8435 29.713 32.6663 28.9217 28.1487 24.7269C23.4743 20.3907 22.7617 17.1353 24.3558 15.4078C25.9498 13.6804 29.2577 14.1551 33.9108 18.4412C38.2043 22.4807 39.4379 28.8004 39.2224 29.1714Z" fill="#20BF55"/>
<path d="M40 30.8261C40 29.6087 41.0223 28.4348 41.5335 28C42.3002 28 43.6036 28.1739 42.6835 28.8696C41.7635 29.5652 41.5335 30.7536 41.5335 31.2609V33H40V30.8261Z" fill="#1A9964" stroke="#1A9964" stroke-linecap="round" stroke-linejoin="round"/>
</svg>
