<svg width="24" height="24" viewBox="0 0 24 24" fill="none" xmlns="http://www.w3.org/2000/svg">
<path d="M5 9L10 11M13 11L19 5M5 8.5C5 9.32843 4.32843 10 3.5 10C2.67157 10 2 9.32843 2 8.5C2 7.67157 2.67157 7 3.5 7C4.32843 7 5 7.67157 5 8.5ZM13 11.5C13 12.3284 12.3284 13 11.5 13C10.6716 13 10 12.3284 10 11.5C10 10.6716 10.6716 10 11.5 10C12.3284 10 13 10.6716 13 11.5ZM21 4.5C21 5.32843 20.3284 6 19.5 6C18.6716 6 18 5.32843 18 4.5C18 3.67157 18.6716 3 19.5 3C20.3284 3 21 3.67157 21 4.5Z" stroke="#0194F3" stroke-width="2"/>
<path d="M2 13.5C2 12.6716 2.67157 12 3.5 12C4.32843 12 5 12.6716 5 13.5V21H2V13.5Z" fill="#687176"/>
<path d="M10 16.5C10 15.6716 10.6716 15 11.5 15C12.3284 15 13 15.6716 13 16.5V21H10V16.5Z" fill="#687176"/>
<path d="M18 9.5C18 8.67157 18.6716 8 19.5 8C20.3284 8 21 8.67157 21 9.5V21H18V9.5Z" fill="#687176"/>
</svg>
